<svg xmlns="http://www.w3.org/2000/svg" viewBox="0 0 21.61 12.64"><defs><style>.cls-1{fill:#535252;}</style></defs><g id="Layer_2" data-name="Layer 2"><g id="Layer_1-2" data-name="Layer 1"><g id="Grupo_4074" data-name="Grupo 4074"><g id="airplane"><g id="Grupo_1550" data-name="Grupo 1550"><g id="Grupo_1549" data-name="Grupo 1549"><g id="Caminho_1992" data-name="Caminho 1992"><path class="cls-1" d="M9.74,4,6.54,1.12,6.48.91A.61.61,0,0,1,6.92.2L7.9,0A2,2,0,0,1,9.25.26l5.17,2.92ZM8,1l2.1,1.89,1.45-.25L8.76,1.13A1.1,1.1,0,0,0,8.07,1Z"/></g></g></g><g id="Grupo_1552" data-name="Grupo 1552"><g id="Grupo_1551" data-name="Grupo 1551"><g id="Caminho_1993" data-name="Caminho 1993"><path class="cls-1" d="M7.9,12.64l-.22-.09a.6.6,0,0,1-.23-.81L10.27,7.3l-7,.47a1.25,1.25,0,0,1-1.06-.56L.2,4.37A1,1,0,0,1,.28,3.06,1,1,0,0,1,1,2.73,1.14,1.14,0,0,1,1.74,3L3.33,4.36a.94.94,0,0,0,.9.36L19.44,2.06a2,2,0,0,1,2.13,1.73,2,2,0,0,1-1.49,2.33L14.71,7l-4,4.69a2,2,0,0,1-1.22.71Zm2.6-6.36a.89.89,0,0,1,.88.83.92.92,0,0,1-.14.53L8.8,11.47l.48-.09A1,1,0,0,0,9.9,11L14,6.27A.88.88,0,0,1,14.55,6l5.34-.84A1,1,0,0,0,20.58,4a1,1,0,0,0-.37-.7,1,1,0,0,0-.71-.2h0L4.41,5.7a1.88,1.88,0,0,1-1.79-.64L1.07,3.76,3,6.65c.06.1.1.12.18.13l7.26-.49Z"/></g></g></g></g></g></g></g></svg>