<svg xmlns="http://www.w3.org/2000/svg" id="prefix__airplane" width="38.334" height="21.644" viewBox="0 0 38.334 21.644">
    <defs>
        <style>
            .prefix__cls-1{fill:#006e6e}
        </style>
    </defs>
    <g id="prefix__Grupo_1550" data-name="Grupo 1550" transform="translate(13.029)">
        <g id="prefix__Grupo_1549" data-name="Grupo 1549">
            <path id="prefix__Caminho_1992" d="M148.307 93.2a2.893 2.893 0 0 0-1.844-.666h-1.808a.18.18 0 0 0-.142.291l4.549 5.839 5.9.009z" class="prefix__cls-1" data-name="Caminho 1992" transform="translate(-144.475 -92.531)"/>
        </g>
    </g>
    <g id="prefix__Grupo_1552" data-name="Grupo 1552" transform="translate(0 2.785)">
        <g id="prefix__Grupo_1551" data-name="Grupo 1551">
            <path id="prefix__Caminho_1993" d="M35.675 128.205l-29.035-.033a2.662 2.662 0 0 1-2.305-1.312l-2.547-3.079a1.009 1.009 0 0 0-1.694 1.066l2.756 5.972.015.034a1.258 1.258 0 0 0 .992.8l13.743 1.483a.721.721 0 0 1 .455 1.2l-6.991 7.64a.18.18 0 0 0 .14.293h2.654a2.887 2.887 0 0 0 1.886-.7l.017-.014 9.226-7.478a.725.725 0 0 1 .467-.161l10.227.185a2.824 2.824 0 0 0 2.653-2.95 2.79 2.79 0 0 0-2.659-2.946z" class="prefix__cls-1" data-name="Caminho 1993" transform="translate(0 -123.415)"/>
        </g>
    </g>
</svg>
