<svg xmlns="http://www.w3.org/2000/svg" viewBox="0 0 38.34 21.64"><defs><style>.cls-1{fill:#006e6e;}</style></defs><g id="Layer_2" data-name="Layer 2"><g id="DESIGNED_BY_FREEPIK" data-name="DESIGNED BY FREEPIK"><g id="airplane"><g id="Grupo_1550" data-name="Grupo 1550"><g id="Grupo_1549" data-name="Grupo 1549"><path id="Caminho_1992" data-name="Caminho 1992" class="cls-1" d="M21.48.67A2.89,2.89,0,0,1,23.32,0h1.81a.18.18,0,0,1,.18.18.15.15,0,0,1,0,.11L20.72,6.13h-5.9Z"/></g></g><g id="Grupo_1552" data-name="Grupo 1552"><g id="Grupo_1551" data-name="Grupo 1551"><path id="Caminho_1993" data-name="Caminho 1993" class="cls-1" d="M2.66,7.57h0l29,0A2.67,2.67,0,0,0,34,6.23l2.55-3.08A1,1,0,0,1,38,3a1,1,0,0,1,.27,1.2l-2.75,6,0,0a1.25,1.25,0,0,1-1,.8L20.74,12.5a.72.72,0,0,0-.46,1.2l7,7.64a.19.19,0,0,1,0,.26.21.21,0,0,1-.12,0H24.48a2.92,2.92,0,0,1-1.89-.7v0l-9.23-7.48a.78.78,0,0,0-.47-.16l-10.22.19a2.83,2.83,0,0,1-2.66-3A2.8,2.8,0,0,1,2.63,7.57Z"/></g></g></g></g></g></svg>