<svg xmlns="http://www.w3.org/2000/svg" viewBox="0 0 21.61 12.63"><defs><style>.cls-1{fill:#535252;}</style></defs><g id="Layer_2" data-name="Layer 2"><g id="DESIGNED_BY_FREEPIK" data-name="DESIGNED BY FREEPIK"><g id="Grupo_4074" data-name="Grupo 4074"><g id="airplane"><g id="Grupo_1550" data-name="Grupo 1550"><g id="Grupo_1549" data-name="Grupo 1549"><g id="Caminho_1992" data-name="Caminho 1992"><path class="cls-1" d="M11.86,4,7.18,3.18,12.36.26A2,2,0,0,1,13.71,0l.94.17a.59.59,0,0,1,.48.69l0,.17L15,1.22ZM10.11,2.68l1.45.25L13.66,1l-.12,0a1,1,0,0,0-.69.11h0Z"/></g></g></g><g id="Grupo_1552" data-name="Grupo 1552"><g id="Grupo_1551" data-name="Grupo 1551"><g id="Caminho_1993" data-name="Caminho 1993"><path class="cls-1" d="M13.77,12.63l-.24,0-1.37-.24a2.05,2.05,0,0,1-1.22-.72L6.83,6.92l-5.26-.8A2,2,0,0,1,.05,3.74,2,2,0,0,1,2.23,2.06h0L17.37,4.72a.93.93,0,0,0,.86-.3L19.89,3a1.06,1.06,0,0,1,.72-.26,1,1,0,0,1,.72.33,1,1,0,0,1,.07,1.32l-2,2.84a1.12,1.12,0,0,1-1,.56L11.31,7.3l3,4.6-.11.49ZM2,3.05a1,1,0,0,0-.62.21A.94.94,0,0,0,1,3.91a1,1,0,0,0,.73,1.23L7.06,6a.88.88,0,0,1,.53.29L11.69,11a1.08,1.08,0,0,0,.64.38l.48.09L10.37,7.64a.88.88,0,0,1,.16-1.14.94.94,0,0,1,.64-.22l7.28.5s.1,0,.12-.08l2-2.9L18.93,5.12a1.83,1.83,0,0,1-1.73.58L2.12,3.06Z"/></g></g></g></g></g></g></g></svg>