<svg xmlns="http://www.w3.org/2000/svg" width="21.829" height="23" viewBox="0 0 21.829 23">
    <g id="backpack" transform="translate(-10.998)">
        <g id="Grupo_4256" data-name="Grupo 4256" transform="translate(10.998)">
            <path id="Caminho_21360" fill="#535252" d="M32.827 19.06v-6.247a.5.5 0 0 0-.49-.515h-2.6V9.8A1.068 1.068 0 0 0 30.8 8.733V5.111a2.667 2.667 0 0 0-2.666-2.662H25.32V1.58A1.583 1.583 0 0 0 23.734 0h-3.861a1.57 1.57 0 0 0-1.581 1.56v.889h-2.569a2.653 2.653 0 0 0-2.648 2.657v3.627A1.054 1.054 0 0 0 14.118 9.8h.022v2.5h-2.627a.5.5 0 0 0-.514.49V19.06a1.584 1.584 0 0 0 1.57 1.6h1.59A2.651 2.651 0 0 0 16.8 23h10.259a2.651 2.651 0 0 0 2.641-2.343h1.545a1.584 1.584 0 0 0 1.579-1.588l.003-.009zm-18.687.532h-1.563a.518.518 0 0 1-.515-.521v-.543h2.076zm0-2.13h-2.077v-4.1h2.076zM19.357 1.58a.5.5 0 0 1 .493-.515h3.874a.517.517 0 0 1 .53.5v.881h-4.9zm9.317 18.775a1.6 1.6 0 0 1-1.615 1.58H16.8a1.585 1.585 0 0 1-1.6-1.572v-2.687h13.47zm0-3.744H15.2V9.8h1.331v.836a.562.562 0 0 0 .551.548h2.236a.532.532 0 0 0 .515-.548V9.8h4.153v.836a.562.562 0 0 0 .551.548h2.236a.532.532 0 0 0 .515-.548V9.8h1.384v6.815zM17.6 10.116v-1.7h1.171v1.7zm7.454 0v-1.7h1.171v1.7zm2.236-1.385V7.9a.533.533 0 0 0-.515-.551H24.54a.564.564 0 0 0-.551.551v.834h-4.153V7.9a.533.533 0 0 0-.515-.551h-2.235a.564.564 0 0 0-.551.551v.834h-2.4V5.111a1.587 1.587 0 0 1 1.577-1.6h12.426a1.6 1.6 0 0 1 1.6 1.6v3.62zm2.449 4.632h2.023v4.1h-2.023zm2.023 5.7a.518.518 0 0 1-.5.532h-1.52v-1.067h2.023z" data-name="Caminho 21360" transform="translate(-10.998)"/>
        </g>
    </g>
</svg>
