<svg xmlns="http://www.w3.org/2000/svg" width="19.222" height="20.548" viewBox="0 0 19.222 20.548">
  <g id="Grupo_2328" data-name="Grupo 2328" transform="translate(0 0)">
    <path id="Caminho_21158" data-name="Caminho 21158" d="M1016.95,430.763H1001.8a2.036,2.036,0,0,0-2.036,2.036v9.294h1.735l-.015-7.322a1.783,1.783,0,0,1,1.783-1.783h12.216a1.783,1.783,0,0,1,1.783,1.783l.006,7.322h1.714V432.8A2.036,2.036,0,0,0,1016.95,430.763Z" transform="translate(-999.764 -426.405)" fill="#707070"/>
    <path id="Caminho_21159" data-name="Caminho 21159" d="M1031.682,457.279h-11.79a1.118,1.118,0,0,0-1.1,1.132v6.557h14v-6.557A1.118,1.118,0,0,0,1031.682,457.279Zm-5.895,2.833a.708.708,0,1,1,.69-.708A.7.7,0,0,1,1025.787,460.112Z" transform="translate(-1016.176 -449.279)" fill="#707070"/>
    <path id="Caminho_21160" data-name="Caminho 21160" d="M1016.935,524.491h-15.12a2.051,2.051,0,0,1-2.051-2.051v-1.793h19.222v1.793A2.051,2.051,0,0,1,1016.935,524.491Z" transform="translate(-999.764 -503.943)" fill="#707070"/>
    <path id="Caminho_21161" data-name="Caminho 21161" d="M1044.925,397.078h-7.358a1.032,1.032,0,0,0-.975,1.081v2.562h1.1V398.7h7.118v2.023h1.095v-2.562A1.032,1.032,0,0,0,1044.925,397.078Z" transform="translate(-1031.533 -397.078)" fill="#707070"/>
  </g>
</svg>
