<svg xmlns="http://www.w3.org/2000/svg" viewBox="0 0 17.49 30.54"><defs><style>.cls-1{fill:#707070;}</style></defs><g id="Layer_2" data-name="Layer 2"><g id="Layer_1-2" data-name="Layer 1"><g id="Grupo_3079" data-name="Grupo 3079"><g id="Grupo_2329" data-name="Grupo 2329"><path id="Caminho_21155" data-name="Caminho 21155" class="cls-1" d="M15.5,8.8H14V1.72H3.52V8.8H2V.87A1,1,0,0,1,3,0H14.45A1,1,0,0,1,15.5.87Z"/><g id="Grupo_1974" data-name="Grupo 1974"><path id="Caminho_21156" data-name="Caminho 21156" class="cls-1" d="M12.44,19.1H5.05a2.82,2.82,0,0,0-2.33,1.16L0,24.32v2.34a2.27,2.27,0,0,0,2.42,2.08H15.07a2.27,2.27,0,0,0,2.42-2.08V24.32l-2.72-4.06A2.82,2.82,0,0,0,12.44,19.1Z"/><rect id="Retângulo_634" data-name="Retângulo 634" class="cls-1" x="6.64" y="7.58" width="4.22" height="1"/><path id="Retângulo_635" data-name="Retângulo 635" class="cls-1" d="M1.61,29.14h1.6v.6a.8.8,0,0,1-.8.8h0a.8.8,0,0,1-.8-.8h0v-.6Z"/><path id="Retângulo_636" data-name="Retângulo 636" class="cls-1" d="M14.28,29.14h1.61v.6a.8.8,0,0,1-.8.8h0a.8.8,0,0,1-.81-.8h0v-.6Z"/><path id="Caminho_21157" data-name="Caminho 21157" class="cls-1" d="M15.12,9.43H2.37a2.21,2.21,0,0,0-2.37,2v11.2l2.6-3.51a2.4,2.4,0,0,1,1.91-.9H13a2.4,2.4,0,0,1,1.91.9l2.6,3.51V11.47A2.21,2.21,0,0,0,15.12,9.43ZM8.75,14.65A.71.71,0,1,1,9,13.24a.7.7,0,0,1,.6.71.78.78,0,0,1-.82.7Zm5,0L12.57,13a1.63,1.63,0,0,0-1.36-.69H6.28a1.58,1.58,0,0,0-1.35.7l-1.2,1.67H2.56l1.66-2.54a1.61,1.61,0,0,1,1.34-.67h6.17a1.62,1.62,0,0,1,1.31.62l1.88,2.59Z"/></g></g></g></g></g></svg>