<svg xmlns="http://www.w3.org/2000/svg" viewBox="0 0 21.24 31.93"><defs><style>.cls-1{fill:#707070;}</style></defs><g id="Layer_2" data-name="Layer 2"><g id="Layer_1-2" data-name="Layer 1"><g id="Grupo_3078" data-name="Grupo 3078"><g id="Grupo_2330" data-name="Grupo 2330"><path id="Caminho_21152" data-name="Caminho 21152" class="cls-1" d="M16.11,6.42H5A1.56,1.56,0,0,0,3.42,8h0V20.53H17.68V8A1.57,1.57,0,0,0,16.11,6.42Zm-5.56,3.93a.93.93,0,1,1,.93-.93.93.93,0,0,1-.93.93Z"/><rect id="Retângulo_631" data-name="Retângulo 631" class="cls-1" x="7.32" width="6" height="1"/><path id="Caminho_21153" data-name="Caminho 21153" class="cls-1" d="M18.17,2.4H3.08A3.08,3.08,0,0,0,0,5.48V20.53H2.38V8.18a2.81,2.81,0,0,1,2.8-2.81H15.91a2.81,2.81,0,0,1,2.81,2.81V20.53h2.52v-15A3.08,3.08,0,0,0,18.17,2.4Z"/><path id="Caminho_21154" data-name="Caminho 21154" class="cls-1" d="M18.13,29.74h-15A3.12,3.12,0,0,1,0,26.62H0V21.71H21.24v4.91a3.11,3.11,0,0,1-3.11,3.12Z"/><path id="Retângulo_637" data-name="Retângulo 637" class="cls-1" d="M3,30.53h1.6v.6a.8.8,0,0,1-.8.8h0a.79.79,0,0,1-.8-.79H3v-.6Z"/><path id="Retângulo_638" data-name="Retângulo 638" class="cls-1" d="M15.71,30.53h1.61v.6a.8.8,0,0,1-.8.8h0a.8.8,0,0,1-.81-.79h0v-.6Z"/></g></g></g></g></svg>