<svg xmlns="http://www.w3.org/2000/svg" width="33.768" height="15.761" viewBox="0 0 33.768 15.761">
    <path id="bus" fill="#535252" d="M33.514 6.078l-1.74-3.835A3.851 3.851 0 0 0 28.285 0H3.337A3.341 3.341 0 0 0 0 3.337v8.341a1.832 1.832 0 0 0 1.829 1.829h2.73a2.814 2.814 0 0 0 5.515 0h13.62a2.814 2.814 0 0 0 5.515 0H32.2a1.566 1.566 0 0 0 1.564-1.564v-4.7a2.8 2.8 0 0 0-.253-1.165zm-1.22.037l-5.281-.442V3.309l3.794-.474zM7.316 14.633A1.688 1.688 0 1 1 9 12.944a1.688 1.688 0 0 1-1.684 1.689zm19.135 0a1.688 1.688 0 1 1 1.688-1.688 1.688 1.688 0 0 1-1.688 1.688zm5.749-2.252h-2.992a2.814 2.814 0 0 0-5.515 0h-13.62a2.814 2.814 0 0 0-5.515 0h-2.73a.7.7 0 0 1-.7-.7V3.337a2.214 2.214 0 0 1 2.209-2.211h24.948a2.713 2.713 0 0 1 1.779.67l-3.649.456H4.5a.563.563 0 0 0-.563.563v3.376a.563.563 0 0 0 .563.563h21.927l6.214.518v4.671a.44.44 0 0 1-.439.439zM5.064 5.628V3.377H9v2.251zm5.066-2.251h4.5v2.251h-4.5zm5.628 0H19.7v2.251h-3.94zm5.065 0h5.065v2.251h-5.065zm0 0" transform="translate(.001)"/>
</svg>
