<svg xmlns="http://www.w3.org/2000/svg" viewBox="0 0 22 22.04"><title>calendario</title><g id="Camada_2" data-name="Camada 2"><g id="Camada_1-2" data-name="Camada 1"><g id="Grupo_485" data-name="Grupo 485"><g id="Grupo_484" data-name="Grupo 484"><path id="Caminho_249" data-name="Caminho 249" d="M20.07,2.62c.05.06-3.05,0-3,0V2a1.94,1.94,0,1,0-3.87-.09v.73H9V2A1.94,1.94,0,0,0,5.1,1.89v.73H1.93A1.94,1.94,0,0,0,0,4.56V20.11A1.93,1.93,0,0,0,1.93,22H20.07A1.93,1.93,0,0,0,22,20.11V4.56A1.94,1.94,0,0,0,20.07,2.62ZM14.47,2a.64.64,0,0,1,1.28,0V4.56a.64.64,0,1,1-1.28.05V2ZM6.39,2A.63.63,0,0,1,7,1.31a.65.65,0,0,1,.67.62V4.56a.66.66,0,0,1-.62.67.65.65,0,0,1-.67-.62V2ZM20.71,20.11a.64.64,0,0,1-.64.64H1.93a.64.64,0,0,1-.64-.64h0v-11H20.71Zm0-12.25H1.29V4.56a.65.65,0,0,1,.64-.65H5.1v.65A1.94,1.94,0,0,0,9,4.64V3.91h4.21v.65a1.94,1.94,0,0,0,3.87.08V3.91s3-.06,3,0a.65.65,0,0,1,.64.65h0Z" style="fill:#535252"/></g></g><path d="M18,19.14H4a1.5,1.5,0,0,1-1.5-1.5v-6A1.5,1.5,0,0,1,4,10.14H18a1.5,1.5,0,0,1,1.5,1.5v6A1.5,1.5,0,0,1,18,19.14Zm-14-8a.5.5,0,0,0-.5.5v6a.5.5,0,0,0,.5.5H18a.5.5,0,0,0,.5-.5v-6a.5.5,0,0,0-.5-.5Z" style="fill:#535252"/></g></g></svg>