<svg xmlns="http://www.w3.org/2000/svg" id="surface1" width="37.499" height="15.001" viewBox="0 0 37.499 15.001">
    <defs>
        <style>
            .cls-1{fill:#535252}
        </style>
    </defs>
    <path id="Caminho_21349" d="M242.5 86.891H240v1.25h2.5zm0 0" class="cls-1" data-name="Caminho 21349" transform="translate(-220.625 -81.266)"/>
    <path id="Caminho_21350" d="M.536 4.248l4.245-.606a21.426 21.426 0 0 1 2.406-1.275A21.047 21.047 0 0 1 15.895.492h.738a21.244 21.244 0 0 1 10.143 2.587l2.143 1.169a14.767 14.767 0 0 1 7.147 1.937A2.853 2.853 0 0 1 37.5 8.656v3.711a.625.625 0 0 1-.625.625h-2.1a3.736 3.736 0 0 1-7.052 0h-16.7a3.736 3.736 0 0 1-7.052 0H3.75a.628.628 0 0 1-.232-.044l-2.024-.812A2.363 2.363 0 0 1 0 9.929V4.867a.625.625 0 0 1 .536-.619zM28.8 12.242a2.5 2.5 0 1 0-.051-.5 2.5 2.5 0 0 0 .051.5zm-11.3-.5h10a3.75 3.75 0 1 1 7.5 0h1.25V8.656a1.6 1.6 0 0 0-.8-1.386 13.513 13.513 0 0 0-6.7-1.778H17.5zm0-7.5h8.8l-.121-.066A19.984 19.984 0 0 0 17.5 1.769zm-1.25-2.5h-.35a19.781 19.781 0 0 0-7.358 1.409l1.091 1.091h6.617zm-11.2 10.5a2.5 2.5 0 1 0-.051-.5 2.5 2.5 0 0 0 .052.5zm-3.8-6.125h1.875v1.25H1.25v2.562a1.119 1.119 0 0 0 .707 1.044l1.793.72c0-.057.007-.114.011-.172s.005-.125.011-.187.019-.125.029-.187.018-.125.03-.182.031-.12.047-.179.029-.119.048-.178.041-.114.062-.171.041-.115.063-.172.051-.107.078-.16.052-.111.081-.165.063-.1.091-.149.062-.107.1-.158.069-.092.1-.138.073-.1.113-.149.077-.086.116-.125.082-.092.125-.136.086-.078.129-.117.09-.084.137-.125.1-.072.143-.107.1-.074.145-.107.106-.062.16-.1.1-.063.148-.089.114-.055.171-.083.1-.052.156-.074.125-.046.187-.069.1-.04.156-.057c.071-.022.144-.038.217-.056.048-.011.093-.026.141-.036.077-.016.156-.024.234-.036.046-.006.091-.016.137-.021a3.8 3.8 0 0 1 .384-.017 3.754 3.754 0 0 1 3.75 3.75h5V5.492H9.375a.624.624 0 0 1-.442-.183L7.312 3.688a20.041 20.041 0 0 0-1.981 1.084.627.627 0 0 1-.242.089l-3.839.548zm0 0" class="cls-1" data-name="Caminho 21350" transform="translate(0 -.492)"/>
</svg>
