<svg xmlns="http://www.w3.org/2000/svg" width="19.25" height="18" viewBox="0 0 19.25 18">
    <g data-name="Grupo 536" transform="translate(0 -.625)">
        <path d="M19.006 2.97a1 1 0 0 0-.756-.345H4.431l-.2-1.164A1 1 0 0 0 3.25.625H1a1 1 0 0 0 0 2h1.4l1.86 11.164a.872.872 0 0 0 .045.124.846.846 0 0 0 .054.151.982.982 0 0 0 .12.179 1.022 1.022 0 0 0 .095.112.961.961 0 0 0 .193.13.96.96 0 0 0 .112.065.97.97 0 0 0 .367.075h11a1 1 0 0 0 0-2H6.1l-.166-1H17.25a1 1 0 0 0 .99-.858l1-7a1 1 0 0 0-.234-.797zM17.1 4.625l-.285 2H13.25v-2zm-4.847 0v2h-3v-2zm0 3v2h-3v-2zm-4-3v2h-3a.481.481 0 0 0-.148.03l-.338-2.03zm-2.986 3H8.25v2H5.6zm7.986 2v-2h3.418l-.285 2z" data-name="Caminho 412"/>
        <circle cx="1.5" cy="1.5" r="1.5" data-name="Elipse 1" transform="translate(5.25 15.625)"/>
        <circle cx="1.5" cy="1.5" r="1.5" data-name="Elipse 2" transform="translate(14.25 15.625)"/>
    </g>
</svg>
