<svg xmlns="http://www.w3.org/2000/svg" id="checked-symbol" width="15.48" height="15.481" viewBox="0 0 15.48 15.481">
    <defs>
        <style>
            .cls-1{fill:#006e6e}
        </style>
    </defs>
    <path id="Caminho_383" d="M14.443 3.855a7.708 7.708 0 0 0-2.817-2.817A7.571 7.571 0 0 0 7.74 0a7.571 7.571 0 0 0-3.885 1.038 7.706 7.706 0 0 0-2.817 2.817A7.571 7.571 0 0 0 0 7.74a7.573 7.573 0 0 0 1.038 3.885 7.708 7.708 0 0 0 2.817 2.817 7.572 7.572 0 0 0 3.885 1.039 7.572 7.572 0 0 0 3.885-1.038 7.706 7.706 0 0 0 2.817-2.817A7.573 7.573 0 0 0 15.48 7.74a7.573 7.573 0 0 0-1.037-3.885zm-1.684 2.706l-5.472 5.473a.631.631 0 0 1-.464.192.62.62 0 0 1-.454-.192L2.721 8.385a.616.616 0 0 1-.181-.454.628.628 0 0 1 .181-.464l.917-.907a.633.633 0 0 1 .907 0l2.278 2.279 4.112-4.1a.633.633 0 0 1 .907 0l.917.907a.627.627 0 0 1 .181.463.614.614 0 0 1-.181.452z" class="cls-1" data-name="Caminho 383"/>
</svg>
