<svg xmlns="http://www.w3.org/2000/svg" width="27.97" height="31.979" viewBox="0 0 27.97 31.979">
    <defs>
        <style>
            .prefix__cls-1{fill:#707070}
        </style>
    </defs>
    <g id="prefix__cutlery">
        <path id="prefix__Caminho_2061" d="M34.61 0c-1.589 0-3.7 4.281-3.7 7.548 0 2.154.721 3.323 1.8 3.871a2.371 2.371 0 0 1 1.284 2.343l-1.55 15.83a2.175 2.175 0 1 0 4.33 0l-1.55-15.83a2.373 2.373 0 0 1 1.284-2.343c1.078-.548 1.8-1.717 1.8-3.871C38.307 4.281 36.284 0 34.61 0z" class="prefix__cls-1" data-name="Caminho 2061" transform="translate(-30.912)"/>
        <path id="prefix__Caminho_2062" d="M207.327 0a.53.53 0 0 0-.53.531v6.531a.533.533 0 0 1-1.066 0V.531A.53.53 0 0 0 205.2 0h-.006a.53.53 0 0 0-.53.531v6.531a.533.533 0 0 1-1.066 0V.531a.53.53 0 0 0-.53-.531h-.006a.53.53 0 0 0-.53.531v6.531a.533.533 0 0 1-1.066 0V.531a.53.53 0 0 0-.53-.531.5.5 0 0 0-.5.5v7.048c0 2.154.722 3.323 1.8 3.871a2.371 2.371 0 0 1 1.284 2.343l-1.55 15.83a2.176 2.176 0 1 0 4.331 0l-1.55-15.83a2.373 2.373 0 0 1 1.284-2.343c1.077-.548 1.8-1.717 1.8-3.871V.5a.5.5 0 0 0-.508-.5z" class="prefix__cls-1" data-name="Caminho 2062" transform="translate(-189.441)"/>
        <path id="prefix__Caminho_2063" d="M390.55 15.1a.363.363 0 0 0 .363-.363V.637a.637.637 0 0 0-.638-.637.684.684 0 0 0-.658.5l-2.208 7.7a7.848 7.848 0 0 0 1.079 6.608.692.692 0 0 0 .569.3l-1.419 14.491a2.176 2.176 0 1 0 4.331 0z" class="prefix__cls-1" data-name="Caminho 2063" transform="translate(-364.009)"/>
    </g>
</svg>
