<svg xmlns="http://www.w3.org/2000/svg" width="25" height="25" viewBox="0 0 25 25">
  <g id="icone_diarias" data-name="icone diarias" transform="translate(-622.447 -343.387)">
    <g id="Grupo_1251" data-name="Grupo 1251" transform="translate(622.447 343.387)">
      <path id="Caminho_1937" data-name="Caminho 1937" d="M634.772,368.386a12.5,12.5,0,1,1,12.675-12.5A12.5,12.5,0,0,1,634.772,368.386Zm0-23.171A10.672,10.672,0,1,0,645.6,355.886,10.672,10.672,0,0,0,634.772,345.215Z" transform="translate(-622.447 -343.387)" fill="#00b0b0"/>
    </g>
    <g id="Grupo_4611" data-name="Grupo 4611" transform="translate(631.002 350.512)">
      <path id="Caminho_38402" data-name="Caminho 38402" d="M690.872,411.687V400.372h3.645a5.362,5.362,0,0,1,2.7.68,4.781,4.781,0,0,1,1.869,1.919,5.8,5.8,0,0,1,.68,2.778v.521a5.83,5.83,0,0,1-.657,2.786,4.8,4.8,0,0,1-1.85,1.927,5.243,5.243,0,0,1-2.662.7Zm2.728-9.209v7.111h.948a2.122,2.122,0,0,0,1.8-.835,4.093,4.093,0,0,0,.63-2.483v-.49a4.06,4.06,0,0,0-.63-2.471,2.159,2.159,0,0,0-1.834-.832Z" transform="translate(-690.872 -400.372)" fill="#00b0b0"/>
    </g>
  </g>
</svg>
