<svg id="_003-like" data-name="003-like" xmlns="http://www.w3.org/2000/svg" width="15.699" height="12.873" viewBox="0 0 15.699 12.873">
  <g id="Grupo_274" data-name="Grupo 274" transform="translate(0 0)">
    <g id="Grupo_273" data-name="Grupo 273">
      <path id="Caminho_142" data-name="Caminho 142" d="M14.319,54.379H10.844a6.25,6.25,0,0,1,.71,1.8,2.787,2.787,0,0,1-.179,1.86,1.714,1.714,0,0,1-1.53.934H9.839a1.1,1.1,0,0,1-.987-.483,2.638,2.638,0,0,1-.305-.905,4.576,4.576,0,0,0-2.187-3.206H4.98a1.382,1.382,0,0,1-1.3.92H.46a.46.46,0,0,1-.46-.46V46.56a.46.46,0,0,1,.46-.46H3.679a1.382,1.382,0,0,1,1.3.92h.538a18.073,18.073,0,0,1,4.811-.92h2.15a1.379,1.379,0,0,1,1.282,1.888,1.38,1.38,0,0,1,.92,1.84,1.38,1.38,0,0,1,.665,2.251A1.381,1.381,0,0,1,14.319,54.379ZM4.139,53.915h0V47.48a.46.46,0,0,0-.46-.46H.92v7.359H3.679a.46.46,0,0,0,.46-.46Zm7.88-2.3h2.3a.46.46,0,1,0,0-.92h-2.3a.46.46,0,0,1,0-.92H13.4a.46.46,0,0,0,0-.92h-1.38a.46.46,0,0,1,0-.92h.46a.46.46,0,0,0,0-.92h-2.15a17.751,17.751,0,0,0-4.626.9,3.108,3.108,0,0,1-.644.011v5.531c.7,0,1.444-.006,1.444-.006a.459.459,0,0,1,.253.077,5.551,5.551,0,0,1,2.69,3.854c.143.663.167.663.4.662a.788.788,0,0,0,.72-.443c.144-.274.5-1.33-.926-3.433a.46.46,0,0,1,.38-.719h4.3a.46.46,0,0,0,0-.92h-2.3a.46.46,0,0,1,0-.92Z" transform="translate(0 -46.1)" fill="#ce3a3c"/>
    </g>
  </g>
  <g id="Grupo_276" data-name="Grupo 276" transform="translate(2.3 1.84)">
    <g id="Grupo_275" data-name="Grupo 275">
      <ellipse id="Elipse_7" data-name="Elipse 7" cx="0.46" cy="0.46" rx="0.46" ry="0.46" fill="#ce3a3c"/>
    </g>
  </g>
</svg>
