<svg xmlns="http://www.w3.org/2000/svg" viewBox="0 0 47.94 57.08"><title>&amp;amp;</title><g id="Camada_2" data-name="Camada 2"><g id="Camada_1-2" data-name="Camada 1"><path id="Caminho_1" data-name="Caminho 1" d="M21.63,24.52a25,25,0,0,0,5.31-5.66,15.11,15.11,0,0,0,2-7.71A10.4,10.4,0,0,0,25.7,3.24,10.69,10.69,0,0,0,17.55,0,11.56,11.56,0,0,0,9,3.18a11.09,11.09,0,0,0-3.3,8.21,12.39,12.39,0,0,0,2,7,46.16,46.16,0,0,0,3.65,4.49A31,31,0,0,0,3.45,30.1,18.06,18.06,0,0,0,0,40.76a16.32,16.32,0,0,0,2.16,8.33,15,15,0,0,0,6.26,5.82,20,20,0,0,0,9.2,2c2.63,0,10.28,0,15.25-7.23l6,7.37h9.07ZM17.2,7.07a4.6,4.6,0,0,1,4.6,4.59c0,2.54-2.5,5-4.59,7.44-2.05-2.51-4.6-4.94-4.6-7.44A4.6,4.6,0,0,1,17.2,7.07ZM17.63,50A10.86,10.86,0,0,1,10,47.44a8.63,8.63,0,0,1-2.67-6.69,11.73,11.73,0,0,1,2.27-7.3,22.63,22.63,0,0,1,6.07-5.21L28.34,43.89c-2,4.78-7.82,6.07-10.71,6.07Z" style="fill:#f9b508"/></g></g></svg>