<svg xmlns="http://www.w3.org/2000/svg" id="prefix___052-edit" width="14.876" height="14.876" data-name="052-edit" viewBox="0 0 14.876 14.876">
    <g id="prefix__Grupo_214" data-name="Grupo 214">
        <path id="prefix__Caminho_115" d="M14.112.765a2.618 2.618 0 0 0-3.7 0l-8.49 8.49a.433.433 0 0 0-.032.035c-.07.085.04-.147-1.825 4.382A.872.872 0 0 0 1.2 14.81c4.5-1.849 4.33-1.763 4.422-1.857l8.49-8.49a2.618 2.618 0 0 0 0-3.698zM.873 14l.427-1.044.616.616zm1.921-.791l-1.13-1.13.719-1.747 2.157 2.162zm2.517-1.181L2.845 9.566l5.719-5.719 2.466 2.466zM11.646 5.7L9.18 3.23l.62-.616 2.463 2.466zM13.5 3.847l-.616.616L10.413 2l.616-.616A1.744 1.744 0 1 1 13.5 3.847z" data-name="Caminho 115" transform="translate(-.001)" style="fill:#535252"/>
    </g>
</svg>

