<svg xmlns="http://www.w3.org/2000/svg" width="15.525" height="15.525" viewBox="0 0 15.525 15.525">
    <defs>
        <style>
            .cls-1{fill:#535252}
        </style>
    </defs>
    <path id="fechar" d="M10.705 87.763l4.414-4.414a1.387 1.387 0 0 0 0-1.962l-.981-.981a1.387 1.387 0 0 0-1.962 0L7.763 84.82l-4.414-4.414a1.387 1.387 0 0 0-1.962 0l-.981.981a1.387 1.387 0 0 0 0 1.962l4.414 4.414-4.414 4.413a1.387 1.387 0 0 0 0 1.962l.981.981a1.387 1.387 0 0 0 1.962 0l4.414-4.414 4.414 4.414a1.387 1.387 0 0 0 1.962 0l.981-.981a1.387 1.387 0 0 0 0-1.962z" class="cls-1" transform="translate(0 -80)"/>
</svg>
