<svg xmlns="http://www.w3.org/2000/svg" id="prefix___042-file" width="13.184" height="15" data-name="042-file" viewBox="0 0 13.184 15">
    <defs>
        <style>
            .prefix__cls-1{fill:#535252}
        </style>
    </defs>
    <g id="prefix__Grupo_177" data-name="Grupo 177">
        <g id="prefix__Grupo_176" data-name="Grupo 176">
            <path id="prefix__Caminho_94" d="M42.865 1.758h-.439v-.44A1.32 1.32 0 0 0 41.107 0h-8.789A1.32 1.32 0 0 0 31 1.318v10.606a1.32 1.32 0 0 0 1.318 1.318h.439v.439A1.32 1.32 0 0 0 34.076 15h8.789a1.32 1.32 0 0 0 1.318-1.318V3.076a1.32 1.32 0 0 0-1.318-1.318zm-9.721 1.629a1.31 1.31 0 0 0-.386.932v8.044h-.439a.44.44 0 0 1-.439-.439V1.318a.44.44 0 0 1 .439-.439h8.789a.44.44 0 0 1 .439.439v.439h-6.228a1.31 1.31 0 0 0-.932.386zm2.251-.75v1.758h-1.758v-.076a.437.437 0 0 1 .129-.311l1.243-1.243a.437.437 0 0 1 .311-.129h.075zM43.3 13.682a.44.44 0 0 1-.439.439h-8.785a.44.44 0 0 1-.439-.439V5.273h2.2a.439.439 0 0 0 .439-.439v-2.2h6.592a.44.44 0 0 1 .439.439z" class="prefix__cls-1" data-name="Caminho 94" transform="translate(-31)"/>
        </g>
    </g>
    <g id="prefix__Grupo_179" data-name="Grupo 179" transform="translate(3.516 6.211)">
        <g id="prefix__Grupo_178" data-name="Grupo 178">
            <path id="prefix__Caminho_95" d="M158.471 212h-7.031a.439.439 0 0 0 0 .879h7.031a.439.439 0 1 0 0-.879z" class="prefix__cls-1" data-name="Caminho 95" transform="translate(-151 -212)"/>
        </g>
    </g>
    <g id="prefix__Grupo_181" data-name="Grupo 181" transform="translate(3.516 7.969)">
        <g id="prefix__Grupo_180" data-name="Grupo 180">
            <path id="prefix__Caminho_96" d="M158.471 272h-7.031a.439.439 0 0 0 0 .879h7.031a.439.439 0 1 0 0-.879z" class="prefix__cls-1" data-name="Caminho 96" transform="translate(-151 -272)"/>
        </g>
    </g>
    <g id="prefix__Grupo_183" data-name="Grupo 183" transform="translate(3.516 9.727)">
        <g id="prefix__Grupo_182" data-name="Grupo 182">
            <path id="prefix__Caminho_97" d="M158.471 332h-7.031a.439.439 0 0 0 0 .879h7.031a.439.439 0 1 0 0-.879z" class="prefix__cls-1" data-name="Caminho 97" transform="translate(-151 -332)"/>
        </g>
    </g>
    <g id="prefix__Grupo_185" data-name="Grupo 185" transform="translate(3.516 11.484)">
        <g id="prefix__Grupo_184" data-name="Grupo 184">
            <path id="prefix__Caminho_98" d="M158.471 392h-7.031a.439.439 0 0 0 0 .879h7.031a.439.439 0 1 0 0-.879z" class="prefix__cls-1" data-name="Caminho 98" transform="translate(-151 -392)"/>
        </g>
    </g>
</svg>

