<svg xmlns="http://www.w3.org/2000/svg" width="20.796" height="20" viewBox="0 0 20.796 20">
    <defs>
        <style>
            .cls-1{fill:#4e306f}
        </style>
    </defs>
    <path id="filter" d="M20.483 0H1.312A.8.8 0 0 0 .5.781a7.505 7.505 0 0 0 2.661 5.7L6.718 9.52a2.738 2.738 0 0 1 .971 2.08v7.618a.814.814 0 0 0 1.263.65l4.793-3.073a.774.774 0 0 0 .362-.65V11.6a2.738 2.738 0 0 1 .971-2.079l3.558-3.041A7.505 7.505 0 0 0 21.3.781.8.8 0 0 0 20.483 0zm-2.927 5.311L14 8.353a4.277 4.277 0 0 0-1.518 3.247v4.128l-3.168 2.03V11.6A4.277 4.277 0 0 0 7.8 8.353L4.24 5.311a6 6 0 0 1-2.063-3.749h17.441a6 6 0 0 1-2.063 3.749zm0 0" class="cls-1" transform="translate(-.5)"/>
</svg>
