<svg xmlns="http://www.w3.org/2000/svg" width="22" height="22" viewBox="0 0 22 22">
  <g id="icon-guest" transform="translate(-224 -164)">
    <rect id="Retângulo_431" data-name="Retângulo 431" width="22" height="22" transform="translate(224 164)" fill="none"/>
    <g id="icone_hospede" data-name="icone hospede" transform="translate(218 153.427)">
      <g id="Grupo_271" data-name="Grupo 271" transform="translate(9 10.573)">
        <path id="Subtração_2" data-name="Subtração 2" d="M15.391,22H1.609a.69.69,0,0,1-.677-.55L.068,17.164a3.418,3.418,0,0,1,2.546-3.992l2.454-.607V10.881a4.745,4.745,0,0,1-1.38-3.35V4.793A4.813,4.813,0,0,1,8.511,0a4.886,4.886,0,0,1,1,.1l.02,0A4.836,4.836,0,0,1,10.8.585a5.112,5.112,0,0,1,1.786,1.663,5.01,5.01,0,0,1,.746,2.337.378.378,0,0,0,.009.069c0,.049,0,.095,0,.138V7.531a4.735,4.735,0,0,1-1.471,3.439v1.592l.96.233.616.149.029.007.106.025.284.069.516.125a3.421,3.421,0,0,1,2.551,3.993l-.864,4.286A.691.691,0,0,1,15.391,22ZM4.342,14.154h0L2.949,14.5a2.051,2.051,0,0,0-1.528,2.4l.754,3.735H14.826l.753-3.735a2.051,2.051,0,0,0-1.529-2.4l-1.232-.3v-.01l-1.576-.371-.226-.057a.683.683,0,0,1-.526-.665V11.9a4.863,4.863,0,0,1-4.052-.042V13.1a.685.685,0,0,1-.522.665l-.154.038v0l-1.419.355h0v0l0,0ZM5.06,5.477V7.531a3.456,3.456,0,0,0,6.911,0V4.793a3.392,3.392,0,0,0-.079-.687A4.9,4.9,0,0,1,8.511,5.477ZM8.511,1.369A3.455,3.455,0,0,0,5.129,4.108H8.511A3.483,3.483,0,0,0,11.27,2.74,3.434,3.434,0,0,0,8.511,1.369Z" fill="#535252"/>
      </g>
    </g>
  </g>
</svg>
