<svg xmlns="http://www.w3.org/2000/svg" id="_038-hotel" width="21.864" height="21.864" data-name="038-hotel" viewBox="0 0 21.864 21.864">
    <defs>
        <style>
            .cls-1{fill:#535252}
        </style>
    </defs>
    <path id="Caminho_342" d="M20.369 9.565H16.74V1.5a1.5 1.5 0 0 0-1.5-1.5H6.622a1.5 1.5 0 0 0-1.5 1.5v8.065H1.495A1.5 1.5 0 0 0 0 11.06v9.74a1.069 1.069 0 0 0 1.068 1.068H20.8a1.069 1.069 0 0 0 1.064-1.068v-9.74a1.5 1.5 0 0 0-1.495-1.495zM1.281 11.06a.214.214 0 0 1 .214-.214h3.63v9.736H1.281zM6.405 1.5a.217.217 0 0 1 .217-.217h8.619a.217.217 0 0 1 .217.217v19.083h-1.75V16.1a1.5 1.5 0 0 0-1.495-1.5H9.651a1.5 1.5 0 0 0-1.495 1.5v4.484H6.405zm3.032 19.083V16.1a.214.214 0 0 1 .214-.214h2.562a.214.214 0 0 1 .214.214v4.484zm11.145 0H16.74v-9.736h3.63a.214.214 0 0 1 .214.214zm0 0" class="cls-1" data-name="Caminho 342"/>
    <path id="Caminho_343" d="M60.641 284a.641.641 0 0 0-.641.641v3.245a.641.641 0 0 0 1.281 0v-3.245a.641.641 0 0 0-.64-.641zm0 0" class="cls-1" data-name="Caminho 343" transform="translate(-57.438 -271.872)"/>
    <path id="Caminho_344" d="M180.641 64.527a.64.64 0 0 0 .641-.641v-3.245a.641.641 0 1 0-1.281 0v3.245a.641.641 0 0 0 .64.641zm0 0" class="cls-1" data-name="Caminho 344" transform="translate(-172.313 -57.438)"/>
    <path id="Caminho_345" d="M241.641 64.527a.64.64 0 0 0 .641-.641v-3.245a.641.641 0 0 0-1.281 0v3.245a.64.64 0 0 0 .64.641zm0 0" class="cls-1" data-name="Caminho 345" transform="translate(-230.709 -57.438)"/>
    <path id="Caminho_346" d="M302.641 64.527a.64.64 0 0 0 .641-.641v-3.245a.641.641 0 1 0-1.281 0v3.245a.64.64 0 0 0 .64.641zm0 0" class="cls-1" data-name="Caminho 346" transform="translate(-289.104 -57.438)"/>
    <path id="Caminho_347" d="M180.641 210.527a.64.64 0 0 0 .641-.641v-3.245a.641.641 0 0 0-1.281 0v3.245a.641.641 0 0 0 .64.641zm0 0" class="cls-1" data-name="Caminho 347" transform="translate(-172.313 -197.203)"/>
    <path id="Caminho_348" d="M241.641 210.527a.64.64 0 0 0 .641-.641v-3.245a.641.641 0 0 0-1.281 0v3.245a.64.64 0 0 0 .64.641zm0 0" class="cls-1" data-name="Caminho 348" transform="translate(-230.709 -197.203)"/>
    <path id="Caminho_349" d="M302.641 210.527a.64.64 0 0 0 .641-.641v-3.245a.641.641 0 0 0-1.281 0v3.245a.64.64 0 0 0 .64.641zm0 0" class="cls-1" data-name="Caminho 349" transform="translate(-289.104 -197.203)"/>
    <path id="Caminho_350" d="M422.641 284a.641.641 0 0 0-.641.641v3.245a.641.641 0 0 0 1.281 0v-3.245a.641.641 0 0 0-.64-.641zm0 0" class="cls-1" data-name="Caminho 350" transform="translate(-403.979 -271.872)"/>
</svg>
