<svg xmlns="http://www.w3.org/2000/svg" width="31.53" height="28.126" viewBox="0 0 31.53 28.126">
  <g id="icone_diarias" data-name="icone diarias" transform="translate(-622.447 -340.26)">
    <g id="Grupo_1251" data-name="Grupo 1251" transform="translate(622.447 343.387)">
      <path id="Caminho_1937" data-name="Caminho 1937" d="M634.772,368.386a12.5,12.5,0,1,1,12.675-12.5A12.5,12.5,0,0,1,634.772,368.386Zm0-23.171A10.672,10.672,0,1,0,645.6,355.886,10.672,10.672,0,0,0,634.772,345.215Z" transform="translate(-622.447 -343.387)" fill="#00b0b0"/>
    </g>
    <g id="Grupo_4611" data-name="Grupo 4611" transform="translate(631.002 350.512)">
      <path id="Caminho_38402" data-name="Caminho 38402" d="M690.872,411.687V400.372h3.645a5.362,5.362,0,0,1,2.7.68,4.781,4.781,0,0,1,1.869,1.919,5.8,5.8,0,0,1,.68,2.778v.521a5.83,5.83,0,0,1-.657,2.786,4.8,4.8,0,0,1-1.85,1.927,5.243,5.243,0,0,1-2.662.7Zm2.728-9.209v7.111h.948a2.122,2.122,0,0,0,1.8-.835,4.093,4.093,0,0,0,.63-2.483v-.49a4.06,4.06,0,0,0-.63-2.471,2.159,2.159,0,0,0-1.834-.832Z" transform="translate(-690.872 -400.372)" fill="#00b0b0"/>
    </g>
    <g id="Grupo_789" data-name="Grupo 789" transform="translate(644.651 340.26)">
      <g id="Grupo_788" data-name="Grupo 788">
        <g id="Caminho_391" data-name="Caminho 391" transform="translate(5.287 11.944)">
          <path id="Caminho_1934" data-name="Caminho 1934" d="M344.334,238.582a1.015,1.015,0,0,0-.864-1.146h0l-2.009-.28a1.014,1.014,0,0,0-.454,1.969,1.036,1.036,0,0,0,.173.04l2.009.28a1.014,1.014,0,0,0,1.145-.863Z" transform="translate(-340.304 -237.146)" fill="#00b0b0"/>
        </g>
        <g id="Caminho_392" data-name="Caminho 392" transform="translate(4.252 5.007)">
          <path id="Caminho_1935" data-name="Caminho 1935" d="M342.22,225.9a1.015,1.015,0,0,0-1.385-.371l-1.757,1.014a1.014,1.014,0,0,0,.975,1.779l.039-.022,1.757-1.014a1.013,1.013,0,0,0,.372-1.384Z" transform="translate(-338.551 -225.39)" fill="#00b0b0"/>
        </g>
        <g id="Caminho_393" data-name="Caminho 393">
          <path id="Caminho_1936" data-name="Caminho 1936" d="M332.03,220.771a1.015,1.015,0,0,0,1.289-.629l.66-1.918a1.014,1.014,0,0,0-1.917-.66l-.662,1.918a1.014,1.014,0,0,0,.629,1.288Z" transform="translate(-331.344 -216.904)" fill="#00b0b0"/>
        </g>
      </g>
    </g>
  </g>
</svg>
