<svg xmlns="http://www.w3.org/2000/svg" width="25.351" height="25" viewBox="0 0 25.351 25">
  <g id="icone_pontos" data-name="icone pontos" transform="translate(-295.241 -221.729)">
    <g id="Grupo_1251" data-name="Grupo 1251" transform="translate(295.241 221.729)">
      <path id="Caminho_1937" data-name="Caminho 1937" d="M307.675,247a12.5,12.5,0,1,1,12.675-12.5A12.6,12.6,0,0,1,307.675,247Zm0-23.171A10.672,10.672,0,1,0,318.5,234.5,10.759,10.759,0,0,0,307.675,223.829Z" transform="translate(-295 -222)" fill="#535252"/>
    </g>
    <g id="Grupo_1252" data-name="Grupo 1252" transform="translate(304.513 228.852)">
      <path id="Caminho_1938" data-name="Caminho 1938" d="M308.8,234.782h4.015a5.689,5.689,0,0,1,3.486.873,3.2,3.2,0,0,1,1.13,2.7,3.463,3.463,0,0,1-1.114,2.786,4.858,4.858,0,0,1-3.241.952H311.8v3.92h-3Zm3,2.023v3.264h.79a2.033,2.033,0,0,0,1.36-.4,1.458,1.458,0,0,0,.458-1.169,1.658,1.658,0,0,0-.458-1.269,1.894,1.894,0,0,0-1.344-.431Z" transform="translate(-308.804 -234.782)" fill="#535252"/>
    </g>
  </g>
</svg>
