<svg xmlns="http://www.w3.org/2000/svg" width="15.458" height="18.707" viewBox="0 0 15.458 18.707">
  <g id="sticky-notes" transform="translate(-54.46 -40.999)">
    <g id="Grupo_3883" data-name="Grupo 3883" transform="translate(54.46 40.999)">
      <path id="Caminho_1994" data-name="Caminho 1994" d="M59.869,4.6a.365.365,0,0,0-.222-.17L56.907,3.7a1.884,1.884,0,0,0,.082-.332,1.723,1.723,0,1,0-2.159-2.159A1.9,1.9,0,0,0,53.253,2.72l-5.06-1.356a.365.365,0,0,0-.447.258L44.472,13.84a.365.365,0,0,0,.258.447l2.356.631v3.422a.365.365,0,0,0,.365.365H59.31a.365.365,0,0,0,.365-.365V5.741l.23-.86a.365.365,0,0,0-.037-.277ZM56.216.764a.992.992,0,1,1-.7,1.215.994.994,0,0,1,.7-1.215ZM54.106,2.5a1.156,1.156,0,0,1,.662-.529,1.729,1.729,0,0,0,.041.2,1.725,1.725,0,0,0,1.417,1.26,1.164,1.164,0,1,1-2.12-.93Zm-5.749-.334,4.9,1.314q.01.046.022.093a1.887,1.887,0,0,0,.257.566l-.383.383a.365.365,0,1,0,.517.517l.384-.384a1.892,1.892,0,0,0,2.461-.3l2.585.693-2.471,9.221L54.7,13.746a.365.365,0,0,0-.448.258l-.519,1.938-8.457-2.266Zm7.589,12.673-1.377.795.291-1.086Zm3,3.138H47.817V15.114l6.076,1.628a.365.365,0,0,0,.277-.037l2.9-1.677a.365.365,0,0,0,.17-.222l1.7-6.339v9.508Z" transform="translate(-44.46 0.001)" fill="#535252"/>
      <path id="Caminho_1995" data-name="Caminho 1995" d="M161.084,169.694l7.218,1.934a.365.365,0,1,0,.189-.706l-7.218-1.934a.365.365,0,1,0-.189.706Z" transform="translate(-156.562 -162.801)" fill="#535252"/>
      <path id="Caminho_1996" data-name="Caminho 1996" d="M150.685,208.506l7.218,1.934a.365.365,0,1,0,.189-.706l-7.218-1.934a.365.365,0,1,0-.189.706Z" transform="translate(-146.543 -200.195)" fill="#535252"/>
      <path id="Caminho_1997" data-name="Caminho 1997" d="M142.494,247.152l-2.021-.541a.365.365,0,0,0-.189.706l2.021.541a.365.365,0,1,0,.189-.706Z" transform="translate(-136.522 -237.588)" fill="#535252"/>
      <path id="Caminho_1998" data-name="Caminho 1998" d="M239.161,273.07h0a.365.365,0,1,0,.366.365A.365.365,0,0,0,239.161,273.07Z" transform="translate(-231.695 -263.093)" fill="#535252"/>
    </g>
  </g>
</svg>
