<svg xmlns="http://www.w3.org/2000/svg" id="lixeira2" width="16.993" height="21.014" viewBox="0 0 16.993 21.014">
    <defs>
        <style>
            .cls-1{fill:#ce3a3c}
        </style>
    </defs>
    <g id="Grupo_517" data-name="Grupo 517">
        <path id="Caminho_366" d="M60.748 2.518h-3.271a2.844 2.844 0 0 0-5.65 0h-3.271a2.4 2.4 0 0 0-2.4 2.4v.123a2.4 2.4 0 0 0 1.517 2.23v11.342a2.4 2.4 0 0 0 2.4 2.4h9.158a2.4 2.4 0 0 0 2.4-2.4V7.272a2.4 2.4 0 0 0 1.517-2.23v-.123a2.4 2.4 0 0 0-2.4-2.401zm-6.1-1.379a1.709 1.709 0 0 1 1.675 1.379h-3.346a1.709 1.709 0 0 1 1.675-1.379zm5.841 17.475a1.264 1.264 0 0 1-1.262 1.262h-9.154a1.264 1.264 0 0 1-1.262-1.262V7.443h11.682zM62.01 5.042A1.264 1.264 0 0 1 60.748 6.3H48.556a1.264 1.264 0 0 1-1.262-1.262v-.119a1.264 1.264 0 0 1 1.262-1.262h12.192a1.264 1.264 0 0 1 1.262 1.262v.123z" class="cls-1" data-name="Caminho 366" transform="translate(-46.155)"/>
        <path id="Caminho_367" d="M158.644 257.119a.569.569 0 0 0 .569-.569v-6.41a.569.569 0 1 0-1.139 0v6.41a.569.569 0 0 0 .57.569z" class="cls-1" data-name="Caminho 367" transform="translate(-153.2 -238.7)"/>
        <path id="Caminho_368" d="M228.714 257.119a.569.569 0 0 0 .569-.569v-6.41a.569.569 0 1 0-1.139 0v6.41a.569.569 0 0 0 .57.569z" class="cls-1" data-name="Caminho 368" transform="translate(-220.218 -238.7)"/>
        <path id="Caminho_369" d="M298.783 257.119a.569.569 0 0 0 .569-.569v-6.41a.569.569 0 1 0-1.139 0v6.41a.569.569 0 0 0 .57.569z" class="cls-1" data-name="Caminho 369" transform="translate(-287.234 -238.7)"/>
    </g>
</svg>
