<svg xmlns="http://www.w3.org/2000/svg" width="454.341" height="135.866" viewBox="0 0 454.341 135.866">
    <defs>
        <style>
            .cls-1{fill:#f9b508}.cls-2{fill:#fff}
        </style>
    </defs>
    <g id="Camada_2" data-name="Camada 2" transform="translate(0 .005)">
        <g id="Camada_1" data-name="Camada 1" transform="translate(0 -.005)">
            <g id="Logo_ferias" data-name="Logo ferias">
                <path id="Caminho_1" d="M166.6 60.113a48.636 48.636 0 0 0 10.511-11.184 29.693 29.693 0 0 0 3.959-15.282 20.567 20.567 0 0 0-6.414-15.658 21.26 21.26 0 0 0-16.133-6.374 22.923 22.923 0 0 0-16.945 6.255 21.933 21.933 0 0 0-6.532 16.272A24.368 24.368 0 0 0 139 48a91.161 91.161 0 0 0 7.205 8.888 61.365 61.365 0 0 0-15.519 14.391 35.433 35.433 0 0 0-6.829 21.082 32.127 32.127 0 0 0 4.236 16.41 29.317 29.317 0 0 0 12.392 11.5 39.452 39.452 0 0 0 18.215 3.959c5.206 0 20.349 0 30.188-14.312l11.877 14.589h17.955zm-8.809-34.523a9.086 9.086 0 0 1 9.086 9.086c0 5.028-4.949 9.9-9.066 14.728-4.078-4.969-9.106-9.779-9.106-14.728a9.066 9.066 0 0 1 9.086-9.086zm.831 84.882a21.5 21.5 0 0 1-14.965-5.028 17.182 17.182 0 0 1-5.286-13.244 23.1 23.1 0 0 1 4.513-14.45 44.7 44.7 0 0 1 12-10.313l25.016 30.98c-3.959 9.462-15.48 12-21.22 12z" class="cls-1" data-name="Caminho 1" transform="translate(121.322 11.358)"/>
                <path id="Caminho_2" d="M67.75 67.275V11.71h7.78v55.565z" class="cls-2" data-name="Caminho 2" transform="translate(66.363 11.481)"/>
                <path id="Caminho_3" d="M128.711 11.879v55.565h-7.8v-9.5a23.636 23.636 0 0 1-8.111 7.006 22.448 22.448 0 0 1-10.551 2.514 26.6 26.6 0 0 1-13.857-3.583 25.4 25.4 0 0 1-9.5-9.9 32.385 32.385 0 0 1 0-28.921 24.8 24.8 0 0 1 9.383-9.9 26.09 26.09 0 0 1 13.679-3.583 22.8 22.8 0 0 1 18.9 9.62V11.9zm-16.886 45.945a18.231 18.231 0 0 0 6.691-7.483 25.734 25.734 0 0 0 0-21.775 17.816 17.816 0 0 0-16.489-10.175 17.578 17.578 0 0 0-9.68 2.732 18.39 18.39 0 0 0-6.631 7.443A23.517 23.517 0 0 0 83.3 39.375a24.23 24.23 0 0 0 2.415 10.967 18.33 18.33 0 0 0 6.631 7.483 17.42 17.42 0 0 0 9.62 2.692 17.954 17.954 0 0 0 9.779-2.692z" class="cls-2" data-name="Caminho 3" transform="translate(73.933 11.351)"/>
                <path id="Caminho_4" d="M143.1 43.767a15.836 15.836 0 0 0-6.1-4.83 51.468 51.468 0 0 0-8.987-2.989 39.452 39.452 0 0 1-10.333-3.761 6.414 6.414 0 0 1-3.345-5.4 6.532 6.532 0 0 1 3.068-5.939 13.56 13.56 0 0 1 7.918-2.1 20.765 20.765 0 0 1 9.145 3.385l4.3-5.444a20.9 20.9 0 0 0-13.023-5.089 23.913 23.913 0 0 0-9.62 1.98 16.747 16.747 0 0 0-6.869 5.42 13.4 13.4 0 0 0-2.534 7.918 12.273 12.273 0 0 0 5.246 10.689 42.164 42.164 0 0 0 13.857 5.661 33.652 33.652 0 0 1 9.264 3.524 6.216 6.216 0 0 1 2.831 5.582 6.552 6.552 0 0 1-3.266 5.939 15.223 15.223 0 0 1-8.175 2.138 18.825 18.825 0 0 1-15.638-7.641 3.028 3.028 0 0 1-.317-.218l-4.771 5.939a25.437 25.437 0 0 0 20.111 8.869 23.121 23.121 0 0 0 13.857-4.078 13.164 13.164 0 0 0 5.76-11.184 13.4 13.4 0 0 0-2.375-8.373z" class="cls-2" data-name="Caminho 4" transform="translate(103.584 11.373)"/>
                <path id="Caminho_6" d="M174.994 79.391a25.239 25.239 0 0 1 0-21.775 18.132 18.132 0 0 1 16.668-10.175 17.1 17.1 0 0 1 14.688 7.918l4.573-5.939a21.023 21.023 0 0 0-7.661-6.2 23.754 23.754 0 0 0-11.6-2.732 27.278 27.278 0 0 0-14 3.583 25.021 25.021 0 0 0-9.62 9.9A29.257 29.257 0 0 0 164.7 66.92l10.491 12.649z" class="cls-2" data-name="Caminho 6" transform="translate(161.327 39.669)"/>
                <path id="Caminho_7" d="M196.053 73.734a27.713 27.713 0 0 0 9.5-7.324l-4.79-5.8a25.912 25.912 0 0 1-7.918 7.106 20.192 20.192 0 0 1-9.2 1.841 18.568 18.568 0 0 1-9.9-2.692 16.689 16.689 0 0 1-1.544-1.089l8.789 10.551c.93 0 1.861.158 2.85.158a27.317 27.317 0 0 0 12.214-2.752z" class="cls-2" data-name="Caminho 7" transform="translate(168.673 59.379)"/>
                <path id="Caminho_8" d="M234.01 44.1a27.2 27.2 0 0 0-13.857-3.563A26.882 26.882 0 0 0 206.3 44.1a25.081 25.081 0 0 0-9.5 9.9 31.534 31.534 0 0 0 0 28.663 24.981 24.981 0 0 0 9.6 9.9 27.535 27.535 0 0 0 13.857 3.563 27.08 27.08 0 0 0 13.857-3.563 24.962 24.962 0 0 0 9.5-9.9 29.97 29.97 0 0 0 3.421-14.363 29.455 29.455 0 0 0-3.484-14.332 25.159 25.159 0 0 0-9.541-9.868zm2.771 34.978a18.113 18.113 0 0 1-6.79 7.443 18.508 18.508 0 0 1-9.9 2.672 17.955 17.955 0 0 1-9.621-2.653 18.192 18.192 0 0 1-6.81-7.463 23.555 23.555 0 0 1-2.435-10.887 23.218 23.218 0 0 1 2.435-10.729 18.408 18.408 0 0 1 6.81-7.364 18.132 18.132 0 0 1 9.621-2.692 18.508 18.508 0 0 1 9.9 2.672 18.231 18.231 0 0 1 6.79 7.443 25.081 25.081 0 0 1 0 21.557z" class="cls-2" data-name="Caminho 8" transform="translate(189.39 39.709)"/>
                <path id="Caminho_9" d="M233.09 64.615a5.028 5.028 0 0 0-3.722-1.524 4.79 4.79 0 0 0-3.563 1.524 5.048 5.048 0 0 0-1.485 3.623 5.167 5.167 0 0 0 1.485 3.7 4.85 4.85 0 0 0 3.563 1.544 5.048 5.048 0 0 0 3.722-1.544 4.85 4.85 0 0 0 1.524-3.6 4.968 4.968 0 0 0-1.524-3.723z" class="cls-2" data-name="Caminho 9" transform="translate(219.726 61.808)"/>
                <path id="Caminho_10" d="M18.053 9.586a8.769 8.769 0 0 1 6.453-2.672h5.582V.005h-5.82A15.995 15.995 0 0 0 7.7 15.446a8.927 8.927 0 0 0 0 1.029v11.382H5.325L0 34.766h7.72V70.4l7.78 9.462V34.805h12.352v-6.948H15.519V16.475a9.64 9.64 0 0 1 2.534-6.889z" class="cls-2" data-name="Caminho 10" transform="translate(0 .005)"/>
                <path id="Caminho_11" d="M79.494 11.71h-6.928c-2.791.119-12.332 1.109-16.747 9.185V11.71H48v55.585h7.76V40.769a26.585 26.585 0 0 1 2.573-12.035 19.32 19.32 0 0 1 6.81-7.78 16.786 16.786 0 0 1 9.007-2.732h5.345z" class="cls-2" data-name="Caminho 11" transform="translate(47.017 11.481)"/>
                <path id="Caminho_162" d="M70.094 37.869a27.218 27.218 0 0 0-3.326-13.382 24.744 24.744 0 0 0-9.225-9.462c-.554-.3-1.148-.554-1.742-.831a24.962 24.962 0 0 0-11.323-2.653 25.833 25.833 0 0 0-12.887 3.227l-.772.376a25.021 25.021 0 0 0-9.4 9.9 30.465 30.465 0 0 0-3.365 14.431 30.108 30.108 0 0 0 3.5 14.549 25.259 25.259 0 0 0 9.5 9.9 26.7 26.7 0 0 0 13.857 3.563 30.841 30.841 0 0 0 14.609-3.266 26.882 26.882 0 0 0 9.9-9.126l-4.632-5.562a28.822 28.822 0 0 1-8.73 8.453 23.457 23.457 0 0 1-11.4 2.514 16.767 16.767 0 0 1-13.382-5.7 22.388 22.388 0 0 1-5.384-13.857h44.083a26.871 26.871 0 0 0 .119-3.074zM26.346 34.84a21.122 21.122 0 0 1 5.939-11.7 16.707 16.707 0 0 1 12.194-4.632 17.321 17.321 0 0 1 12.154 4.078 19.8 19.8 0 0 1 5.6 12.253z" class="cls-2" data-name="Caminho 162" transform="translate(17.678 11.313)"/>
                <path id="Caminho_163" d="M29.5 17.05l-2.28-3.781L48.341.6 52.3 7.172z" class="cls-2" data-name="Caminho 163" transform="translate(26.663 .598)"/>
            </g>
        </g>
    </g>
</svg>
