<svg xmlns="http://www.w3.org/2000/svg" viewBox="0 0 45.26 45.26"><title>mala</title><g id="Camada_2" data-name="Camada 2"><g id="Camada_1-2" data-name="Camada 1"><g id="_009-luggage" data-name=" 009-luggage"><path id="Caminho_283" data-name="Caminho 283" d="M40.42,10.7H36.78V4.86A4.87,4.87,0,0,0,31.91,0H13.35A4.87,4.87,0,0,0,8.49,4.86V10.7H4.84A4.84,4.84,0,0,0,0,15.54V40.42a4.84,4.84,0,0,0,4.84,4.84H40.42a4.83,4.83,0,0,0,4.84-4.84V15.54A4.84,4.84,0,0,0,40.42,10.7Zm-11.6-.09H16.44V8H28.82ZM11.14,4.86a2.21,2.21,0,0,1,2.21-2.21H31.91a2.21,2.21,0,0,1,2.21,2.21v5.75H31.47v-4A1.33,1.33,0,0,0,30.15,5.3h-15a1.32,1.32,0,0,0-1.33,1.33h0v4H11.14ZM2.65,28.75,5,26.41l5,5-5,5L2.65,34ZM40.42,42.61H4.84a2.19,2.19,0,0,1-2.19-2.19V37.75l1.41,1.4a1.32,1.32,0,0,0,1.87,0l6.84-6.84a1.32,1.32,0,0,0,0-1.87L5.93,23.59a1.33,1.33,0,0,0-1.87,0L2.65,25V15.54a2.19,2.19,0,0,1,2.19-2.19H40.42a2.19,2.19,0,0,1,2.19,2.19V31.83H33.06a1.32,1.32,0,0,0-1.32,1.32h0v5.66a1.33,1.33,0,0,0,1.32,1.33h9.55v.28a2.19,2.19,0,0,1-2.19,2.19Zm2.19-5.13H34.39v-3h8.22Z"/><path id="Caminho_284" data-name="Caminho 284" d="M17.1,17.57a1.33,1.33,0,0,0-1.88,0h0l-4.57,4.57a1.33,1.33,0,0,0,0,1.88l9.14,9.14a1.33,1.33,0,0,0,1.88,0l4.57-4.57a1.33,1.33,0,0,0,0-1.88Zm3.63,12.78-7.27-7.27,2.7-2.7,7.27,7.27Z"/><path id="Caminho_285" data-name="Caminho 285" d="M40,22.72a5.84,5.84,0,1,0-5.83,5.84h0A5.84,5.84,0,0,0,40,22.72Zm-9,0a3.19,3.19,0,1,1,3.19,3.18,3.18,3.18,0,0,1-3.19-3.18Z"/></g></g></g></svg>