<svg xmlns="http://www.w3.org/2000/svg" viewBox="0 0 16.43 16.43"><title>lupa</title><g id="Camada_2" data-name="Camada 2"><g id="Camada_1-2" data-name="Camada 1"><g id="_036-zoom" data-name=" 036-zoom"><g id="Grupo_153" data-name="Grupo 153"><g id="Grupo_152" data-name="Grupo 152"><path id="Caminho_82" data-name="Caminho 82" d="M14,16.07,11.26,13.3a1.32,1.32,0,0,1-.19-1.55L10.32,11a6.25,6.25,0,1,1,.68-.68l.75.75a1.32,1.32,0,0,1,1.55.19L16.08,14a1.39,1.39,0,0,1-.1,2,1.54,1.54,0,0,1-1,.45A1.24,1.24,0,0,1,14,16.07ZM10,10A5.3,5.3,0,1,0,2.5,10h0A5.29,5.29,0,0,0,10,10Zm5.3,5.3a.43.43,0,0,0,.1-.58l-2.77-2.77A.44.44,0,0,0,12,12h0a.43.43,0,0,0-.1.58l2.77,2.78a.45.45,0,0,0,.59-.1Z" style="fill:#707070"/></g></g></g></g></g></svg>