<svg id="icon-map" xmlns="http://www.w3.org/2000/svg" width="22" height="22" viewBox="0 0 22 22">
  <path id="Caminho_303" data-name="Caminho 303" d="M21.422,1.008A1.489,1.489,0,0,0,20.133.732L14.711,2.088a1.072,1.072,0,0,1-.519,0L8.119.569a2.363,2.363,0,0,0-1.142,0L1.141,2.029A1.507,1.507,0,0,0,0,3.5V20.8A1.5,1.5,0,0,0,.578,21.99a1.489,1.489,0,0,0,1.289.276L7.289,20.91a1.072,1.072,0,0,1,.519,0l6.073,1.519a2.365,2.365,0,0,0,1.142,0l5.837-1.46A1.507,1.507,0,0,0,22,19.5V2.2a1.5,1.5,0,0,0-.578-1.191Zm-.978.981a.21.21,0,0,1,.184.039.213.213,0,0,1,.083.17V9.748c-.2.1-.4.214-.593.322a7.041,7.041,0,0,1-.977.488,1.416,1.416,0,0,1-1.4-.1,2.354,2.354,0,0,1-.4-.642,3.663,3.663,0,0,0-.583-.929,2.806,2.806,0,0,0-1.668-.8V3.327ZM18.75,20.162l-3.654.914v-1.6a5.67,5.67,0,0,0,1.056.106c.214,0,.427-.006.632-.013a4.57,4.57,0,0,1,1.37.082.95.95,0,0,1,.583.441.107.107,0,0,1,.014.074Zm-4.943.914-5.614-1.4V16.107c.067-.022.13-.044.189-.065.275-.1.541-.213.8-.322a6.34,6.34,0,0,1,1.576-.519.968.968,0,0,1,1.121.654,6.848,6.848,0,0,1,.354.886,6.245,6.245,0,0,0,.61,1.374,2.78,2.78,0,0,0,.966.889Zm0-17.749v4.58a3.354,3.354,0,0,1-2.762-2.936A3.932,3.932,0,0,1,11.7,2.8Zm-4.05,1.7a4.22,4.22,0,0,0,1.251,2.771,4.932,4.932,0,0,0,2.645,1.4l.154.025v7.988a6.813,6.813,0,0,1-.36-.9,7.945,7.945,0,0,0-.426-1.054,2.225,2.225,0,0,0-2.441-1.339,7.4,7.4,0,0,0-1.9.609c-.166.071-.325.138-.484.2V1.922l2.213.554a4.985,4.985,0,0,0-.649,2.547ZM1.452,3.286,6.9,1.922V15.06a1.665,1.665,0,0,1-.993-.191,2.627,2.627,0,0,1-.708-.83A2.984,2.984,0,0,0,3.71,12.655a2.59,2.59,0,0,0-2.421.5V3.5a.215.215,0,0,1,.163-.209Zm.1,17.723a.21.21,0,0,1-.184-.039.212.212,0,0,1-.083-.17V15.481A3.373,3.373,0,0,1,2,14.255a1.382,1.382,0,0,1,1.29-.377c.334.117.535.407.837.87a3.678,3.678,0,0,0,1.109,1.223,2.862,2.862,0,0,0,1.67.384v3.315Zm18.992-1.3-.54.135a1.513,1.513,0,0,0-.088-.273A2.2,2.2,0,0,0,18.506,18.4a5.587,5.587,0,0,0-1.766-.13c-.2.007-.39.014-.576.012a4.2,4.2,0,0,1-1.067-.142V9.4a1.38,1.38,0,0,1,.727.365,2.629,2.629,0,0,1,.368.615,3.377,3.377,0,0,0,.662,1.007,2.273,2.273,0,0,0,1.6.593,3.281,3.281,0,0,0,1.138-.213,7.894,7.894,0,0,0,1.122-.551V19.5a.215.215,0,0,1-.163.21Zm0,0" transform="translate(0 -0.499)" fill="#535252"/>
  <path id="Caminho_304" data-name="Caminho 304" d="M60.685,118.925a.637.637,0,0,0,.911,0l.4-.41.4.41a.637.637,0,0,0,.912,0,.663.663,0,0,0,0-.927l-.4-.41.4-.41a.663.663,0,0,0,0-.927.637.637,0,0,0-.912,0l-.4.41-.4-.41a.637.637,0,0,0-.912,0,.663.663,0,0,0,0,.927l.4.41-.4.41a.663.663,0,0,0,0,.927Zm0,0" transform="translate(-57.897 -111.093)" fill="#535252"/>
</svg>
