<svg xmlns="http://www.w3.org/2000/svg" viewBox="0 0 18.8 21.96"><title>ordem</title><g id="Camada_2" data-name="Camada 2"><g id="Camada_1-2" data-name="Camada 1"><g id="Grupo_526" data-name="Grupo 526"><path d="M5.25,22a1,1,0,0,1-.71-.29,1,1,0,0,1,0-1.42L8.79,16a1,1,0,0,1,1.42,1.42L6,21.67A1,1,0,0,1,5.25,22Z" style="fill:#4e306f"/><path d="M5.25,22a1,1,0,0,1-.71-.29L.29,17.42A1,1,0,0,1,1.71,16L6,20.25a1,1,0,0,1,0,1.42A1,1,0,0,1,5.25,22Z" style="fill:#4e306f"/><path d="M5.25,20.26a1,1,0,0,1-1-1V8a1,1,0,0,1,2,0V19.26A1,1,0,0,1,5.25,20.26Z" style="fill:#4e306f"/></g><g id="Grupo_526-2" data-name="Grupo 526"><path d="M13.56,0a1,1,0,0,1,.7,1.71L10,6A1,1,0,0,1,8.6,6a1,1,0,0,1,0-1.42L12.85.29A1,1,0,0,1,13.56,0Z" style="fill:#4e306f"/><path d="M13.56,0a1,1,0,0,1,.7.29l4.25,4.25a1,1,0,0,1,0,1.42A1,1,0,0,1,17.1,6L12.85,1.71A1,1,0,0,1,13.56,0Z" style="fill:#4e306f"/><path d="M13.56,1.7a1,1,0,0,1,1,1V14a1,1,0,0,1-2,0V2.7A1,1,0,0,1,13.56,1.7Z" style="fill:#4e306f"/></g></g></g></svg>