<svg id="_029-telephone-1" data-name="029-telephone-1" xmlns="http://www.w3.org/2000/svg" width="13.918" height="13.918" viewBox="0 0 13.918 13.918">
  <g id="Grupo_454" data-name="Grupo 454" transform="translate(0 0)">
    <path id="Caminho_233" data-name="Caminho 233" d="M13.57,10.266l-1.73-1.73a1.225,1.225,0,0,0-1.73,0l-.786.786a.928.928,0,0,1-1.311,0L4.6,5.91A.926.926,0,0,1,4.6,4.6l.786-.786a1.223,1.223,0,0,0,0-1.731L3.66.358a1.224,1.224,0,0,0-1.729,0L1.3.982a4.417,4.417,0,0,0,0,6.239l5.4,5.4a4.409,4.409,0,0,0,6.239,0L13.57,12A1.225,1.225,0,0,0,13.57,10.266ZM2.507.935a.408.408,0,0,1,.577,0l1.73,1.724a.408.408,0,0,1,0,.577l-.288.288L2.22,1.219ZM7.279,12.048l-5.4-5.4a3.586,3.586,0,0,1-.225-4.839l2.3,2.3a1.741,1.741,0,0,0,.076,2.383L7.436,9.9h0a1.741,1.741,0,0,0,2.383.076l2.3,2.3A3.579,3.579,0,0,1,7.279,12.048Zm5.715-.629-.288.288L10.4,9.4l.288-.288a.408.408,0,0,1,.577,0l1.73,1.73A.408.408,0,0,1,12.994,11.419Z" transform="translate(-0.011 0)" fill="#535252"/>
  </g>
</svg>
