<svg xmlns="http://www.w3.org/2000/svg" viewBox="0 0 36.1 45.49"><defs><style>.cls-1{fill:#dcdcdc;}</style></defs><g id="Layer_2" data-name="Layer 2"><g id="Layer_1-2" data-name="Layer 1"><g id="receipt"><path id="Caminho_22079" data-name="Caminho 22079" class="cls-1" d="M36.09,3.06C36.09,1.37,35,0,33.69,0H2.41C1.09,0,0,1.37,0,3.06a3,3,0,0,0,1.8,3V43.2l1.8-2.3,3.61,4.59,3.6-4.59,3.61,4.59L18,40.9l3.61,4.59,3.61-4.59,3.61,4.59,3.61-4.59,1.8,2.3V6A3,3,0,0,0,36.09,3.06Zm-3,36.44-.6-.76-3.61,4.59-3.61-4.59-3.61,4.59-3.61-4.59-3.61,4.59-3.61-4.59L7.22,43.33l-3.6-4.59L3,39.5V3.83H33.09Zm1.2-35.11V2.3H1.81V4.39a1.64,1.64,0,0,1-.6-1.33,1.39,1.39,0,0,1,1.2-1.53H33.69a1.41,1.41,0,0,1,1.2,1.53,1.7,1.7,0,0,1-.6,1.33Z"/><path id="Caminho_22080" data-name="Caminho 22080" class="cls-1" d="M26.47,27.67h-9a.6.6,0,0,0,0,1.2h9a.6.6,0,0,0,0-1.2Z"/><path id="Caminho_22081" data-name="Caminho 22081" class="cls-1" d="M29.05,27.84a.63.63,0,0,0-.17.43.6.6,0,0,0,.6.6.6.6,0,0,0,.6-.6.69.69,0,0,0-.18-.43A.63.63,0,0,0,29.05,27.84Z"/><path id="Caminho_22082" data-name="Caminho 22082" class="cls-1" d="M29.48,19.25h-9a.6.6,0,0,0-.6.6.6.6,0,0,0,.6.6h9a.6.6,0,0,0,.6-.6.6.6,0,0,0-.6-.6Z"/><path id="Caminho_22083" data-name="Caminho 22083" class="cls-1" d="M29.48,23.46h-6a.6.6,0,0,0-.6.6.6.6,0,0,0,.6.6h6a.6.6,0,0,0,.6-.6.6.6,0,0,0-.6-.6Z"/><path id="Caminho_22084" data-name="Caminho 22084" class="cls-1" d="M16.85,24.06a.6.6,0,0,0,.6.6h1.2a.6.6,0,0,0,0-1.2h-1.2a.6.6,0,0,0-.6.6Z"/><path id="Caminho_22085" data-name="Caminho 22085" class="cls-1" d="M27.07,15.64a.6.6,0,0,0-.6-.6h-9a.6.6,0,1,0,0,1.2h9a.6.6,0,0,0,.6-.6Z"/><path id="Caminho_22086" data-name="Caminho 22086" class="cls-1" d="M29.05,15.21a.61.61,0,0,0-.17.43.6.6,0,0,0,.6.6.62.62,0,0,0,.42-.18.6.6,0,1,0-.85-.85Z"/><path id="Caminho_22087" data-name="Caminho 22087" class="cls-1" d="M18.48,20.27a.61.61,0,0,0,0-.85.64.64,0,0,0-.86,0,.61.61,0,0,0,0,.85A.6.6,0,0,0,18.48,20.27Z"/><path id="Caminho_22088" data-name="Caminho 22088" class="cls-1" d="M21.48,24.48a.59.59,0,0,0,0-.85.6.6,0,1,0,0,.86Z"/><path id="Caminho_22089" data-name="Caminho 22089" class="cls-1" d="M10.23,16.3v-.66a.6.6,0,0,0-1.2,0H9v.66a3,3,0,0,0-1.69,1,2.08,2.08,0,0,0-.48,1.57,2.19,2.19,0,0,0,.83,1.5l1.34,1v3.27A1.79,1.79,0,0,1,7.83,23a.6.6,0,1,0-1.2,0A3,3,0,0,0,9,25.93v.53a.6.6,0,0,0,1.2,0h0v-.53a3,3,0,0,0,1.7-1,2.07,2.07,0,0,0,.47-1.57,2.19,2.19,0,0,0-.83-1.5l-1.34-1V17.55a1.81,1.81,0,0,1,1.2,1.7.6.6,0,1,0,1.2,0A3,3,0,0,0,10.23,16.3Zm.6,6.52a1,1,0,0,1,.38.67.91.91,0,0,1-.2.66,1.81,1.81,0,0,1-.78.53V22.34Zm-2.41-3.4a1,1,0,0,1-.37-.68.87.87,0,0,1,.2-.66A1.9,1.9,0,0,1,9,17.55v2.34Z"/><circle id="Elipse_466" data-name="Elipse 466" class="cls-1" cx="24.01" cy="6" r="1"/><path id="Elipse_467" data-name="Elipse 467" class="cls-1" d="M22,5V5Z"/><circle id="Elipse_468" data-name="Elipse 468" class="cls-1" cx="26.01" cy="6" r="1"/><circle id="Elipse_469" data-name="Elipse 469" class="cls-1" cx="19.01" cy="6" r="1"/><path id="Elipse_470" data-name="Elipse 470" class="cls-1" d="M29,5V5Z"/><circle id="Elipse_471" data-name="Elipse 471" class="cls-1" cx="12.01" cy="6" r="1"/><path id="Elipse_472" data-name="Elipse 472" class="cls-1" d="M14,5V5Z"/><circle id="Elipse_473" data-name="Elipse 473" class="cls-1" cx="17.01" cy="6" r="1"/><ellipse id="Elipse_474" data-name="Elipse 474" class="cls-1" cx="31.51" cy="6" rx="0.5" ry="1"/><circle id="Elipse_475" data-name="Elipse 475" class="cls-1" cx="10.01" cy="6" r="1"/><path id="Elipse_476" data-name="Elipse 476" class="cls-1" d="M7,5V5Z"/><ellipse id="Elipse_477" data-name="Elipse 477" class="cls-1" cx="4.51" cy="6" rx="0.5" ry="1"/></g></g></g></svg>