<svg xmlns="http://www.w3.org/2000/svg" viewBox="0 0 15.86 20.54"><defs><style>.cls-1{fill:#006e6e;}</style></defs><g id="Layer_2" data-name="Layer 2"><g id="Layer_1-2" data-name="Layer 1"><g id="Grupo_3896" data-name="Grupo 3896"><g id="Grupo_3895" data-name="Grupo 3895"><g id="_009-next" data-name=" 009-next"><g id="Grupo_32" data-name="Grupo 32"><path id="Caminho_18" data-name="Caminho 18" class="cls-1" d="M8.15,9.67l3.44-4a.28.28,0,0,0,0-.4.28.28,0,0,0-.19-.07H9.94V.29A.29.29,0,0,0,9.65,0H6.22a.29.29,0,0,0-.29.29h0v4.9H4.5a.28.28,0,0,0-.29.28.32.32,0,0,0,.07.19l3.44,4a.28.28,0,0,0,.4,0l0,0Zm-3-3.91h1.1a.29.29,0,0,0,.29-.28h0V.57H9.36v4.9a.29.29,0,0,0,.29.29h1.1L7.93,9.05Z"/></g></g><g id="_053-folder" data-name=" 053-folder"><g id="Grupo_215" data-name="Grupo 215"><path id="Caminho_116" data-name="Caminho 116" class="cls-1" d="M15.06,11.37v-.59a1.41,1.41,0,0,0-1.41-1.39H7.16L5.44,7.67a.45.45,0,0,0-.33-.14H1.39A1.4,1.4,0,0,0,0,8.93V19.15a1.39,1.39,0,0,0,1.39,1.39H13.75a1.39,1.39,0,0,0,1.38-1.24l.63-5.68h0l.09-.82A1.38,1.38,0,0,0,15.06,11.37ZM1.91,19.61H1.39a.46.46,0,0,1-.46-.46h0V8.93a.47.47,0,0,1,.46-.47H4.92l1.72,1.73a.51.51,0,0,0,.33.13h6.68a.48.48,0,0,1,.48.47v.46h-10A1.4,1.4,0,0,0,2.7,12.49Zm12.3-.41a.46.46,0,0,1-.46.41H2.84L3.46,14H14.78Zm.72-6.5,0,.41H3.57l.05-.52a.47.47,0,0,1,.47-.41H14.47a.46.46,0,0,1,.46.46v0Z"/></g></g></g></g></g></g></svg>