<svg xmlns="http://www.w3.org/2000/svg" width="22" height="22" viewBox="0 0 22 22">
  <g id="icon-rooms" transform="translate(-41 -166)">
    <path id="Caminho_1879" data-name="Caminho 1879" d="M0,0H22V22H0Z" transform="translate(41 166)" fill="none"/>
    <g id="_023-do_not_disturb" data-name="023-do not disturb" transform="translate(45.481 166)">
      <path id="Caminho_310" data-name="Caminho 310" d="M10.871,22H2.363A2.366,2.366,0,0,1,0,19.636V13.706a2.353,2.353,0,0,1,1.48-2.192L8.694,8.608a1.069,1.069,0,0,0,.673-1V6.617a2.75,2.75,0,0,0-5.5,0v.344A1.934,1.934,0,0,1,0,6.961V6.617a6.617,6.617,0,0,1,13.234,0v13.02A2.366,2.366,0,0,1,10.871,22ZM6.617,2.578a4.044,4.044,0,0,1,4.039,4.039v.994A2.353,2.353,0,0,1,9.176,9.8L1.962,12.709a1.069,1.069,0,0,0-.673,1v5.931a1.075,1.075,0,0,0,1.074,1.074h8.508a1.075,1.075,0,0,0,1.074-1.074V6.617a5.328,5.328,0,0,0-10.656,0v.344a.645.645,0,1,0,1.289,0V6.617A4.044,4.044,0,0,1,6.617,2.578Zm0,0" transform="translate(0 0)" fill="#535252"/>
    </g>
  </g>
</svg>
