<svg xmlns="http://www.w3.org/2000/svg" width="15.434" height="15.435" viewBox="0 0 15.434 15.435">
    <g id="Grupo_211" data-name="Grupo 211">
        <path id="Caminho_112" fill="#00b0b0" d="M14.78.051L.255 7.344a.452.452 0 0 0-.034.789l3.4 2.094v4.756a.452.452 0 0 0 .814.272l2.325-3.1 5.215 3.209a.452.452 0 0 0 .681-.3L15.432.54V.525a.453.453 0 0 0-.652-.474zM4.052 9.428l-2.666-1.64 10.639-5.342zm.476 4.2v-3.414l7.49-6.559zm7.366.626l-4.586-2.822 6.87-9.148z" data-name="Caminho 112" transform="translate(-.006)"/>
    </g>
</svg>
