<svg xmlns="http://www.w3.org/2000/svg" width="6.679" height="10.596" viewBox="0 0 6.679 10.596">
    <defs>
        <style>
            .cls-1{fill:#535252}
        </style>
    </defs>
    <g id="seta">
        <path id="Caminho_39" d="M88.649 4.686L84.215.258a.854.854 0 0 0-1.224 0l-.517.51a.833.833 0 0 0-.252.612.871.871 0 0 0 .252.62l3.305 3.3-3.305 3.3a.833.833 0 0 0-.252.612.871.871 0 0 0 .252.619l.517.51a.87.87 0 0 0 1.224 0l4.434-4.428A.871.871 0 0 0 88.9 5.3a.833.833 0 0 0-.251-.614z" class="cls-1" data-name="Caminho 39" transform="translate(-82.222)"/>
    </g>
</svg>
