<svg xmlns="http://www.w3.org/2000/svg" viewBox="0 0 14.28 14.28"><title>mais</title><g id="Camada_2" data-name="Camada 2"><g id="Camada_1-2" data-name="Camada 1"><g id="plus-black-symbol"><path id="Caminho_320" data-name="Caminho 320" d="M14,5.48a.94.94,0,0,0-.69-.29H9.09V1A1,1,0,0,0,8.81.28,1,1,0,0,0,8.12,0H6.17a1,1,0,0,0-.69.28A1,1,0,0,0,5.19,1V5.19H1a1,1,0,0,0-.69.29A1,1,0,0,0,0,6.17V8.12a1,1,0,0,0,.28.69A1,1,0,0,0,1,9.09H5.19v4.22a1,1,0,0,0,1,1h2a1,1,0,0,0,1-1h0V9.09h4.22a1,1,0,0,0,1-1h0V6.17A.9.9,0,0,0,14,5.48Z" style="fill:#00b0af"/></g></g></g></svg>