<svg xmlns="http://www.w3.org/2000/svg" viewBox="0 0 23.65 16.08"><title>Ativo 6</title><g id="Camada_2" data-name="Camada 2"><g id="Camada_1-2" data-name="Camada 1"><path id="Caminho_384" data-name="Caminho 384" d="M11.08,4.6a.64.64,0,0,1,.17,1.27A4.39,4.39,0,0,0,8,8.09a.64.64,0,0,1-.86.27.63.63,0,0,1-.27-.86v0A5.71,5.71,0,0,1,11.08,4.6Z" style="fill:#535252"/><path id="Caminho_386" data-name="Caminho 386" d="M18.4,12.24H17V11h2.1a.6.6,0,0,0,.61-.59v-.25a7.94,7.94,0,0,0-7.26-7.91V1.4a.65.65,0,0,0,.66-.63.65.65,0,0,0-.63-.65H11.19a.64.64,0,0,0-.66.62.65.65,0,0,0,.63.66v.82a8,8,0,0,0-7.34,7.91v.22a.64.64,0,0,0,.67.61h2v1.28H5.24A1.8,1.8,0,0,0,3.42,14v1.4a.7.7,0,0,0,.67.67H19.56a.64.64,0,0,0,.61-.67V14a1.75,1.75,0,0,0-1.73-1.77ZM4.7,14a.51.51,0,0,1,.54-.49H18.4a.47.47,0,0,1,.49.45v.82H4.69ZM11.78,3.45a6.7,6.7,0,0,1,6.65,6.24H5.14a6.69,6.69,0,0,1,6.64-6.24ZM15.7,11v1.27h-8V11Z" style="fill:#535252"/><path id="Caminho_387" data-name="Caminho 387" d="M7.13,8.34A.64.64,0,0,0,8,8.09H8a4.39,4.39,0,0,1,3.24-2.22.64.64,0,1,0-.13-1.27h0a5.69,5.69,0,0,0-4.2,2.88A.63.63,0,0,0,7.13,8.34Z" style="fill:#535252"/><path id="Caminho_388" data-name="Caminho 388" d="M4.91,2a.63.63,0,0,0,.9.06.65.65,0,0,0,.07-.88l-.82-1A.63.63,0,0,0,4.17.14a.64.64,0,0,0-.11.9l0,0Z" style="fill:#535252"/><path id="Caminho_389" data-name="Caminho 389" d="M3.66,4.69a.65.65,0,0,0-.23-.88h0L2.32,3.18a.64.64,0,1,0-.64,1.1h0l1.1.64a.63.63,0,0,0,.87-.23Z" style="fill:#535252"/><path id="Caminho_390" data-name="Caminho 390" d="M2,7.09.75,6.87A.64.64,0,0,0,.53,8.13l1.25.22H1.9a.64.64,0,0,0,.64-.63A.65.65,0,0,0,2,7.09Z" style="fill:#535252"/><path id="Caminho_391" data-name="Caminho 391" d="M23.65,7.31a.65.65,0,0,0-.74-.51L21.65,7a.63.63,0,0,0,.11,1.26h.11l1.26-.22A.64.64,0,0,0,23.65,7.31Z" style="fill:#535252"/><path id="Caminho_392" data-name="Caminho 392" d="M22.19,3.36a.65.65,0,0,0-.88-.24l-1.1.64a.64.64,0,0,0,.63,1.11h0L22,4.23A.64.64,0,0,0,22.19,3.36Z" style="fill:#535252"/><path id="Caminho_393" data-name="Caminho 393" d="M17.82,2.09a.64.64,0,0,0,.9-.08h0l.82-1a.64.64,0,0,0-.1-.89.65.65,0,0,0-.88.07l-.82,1a.65.65,0,0,0,.08.9Z" style="fill:#535252"/></g></g></svg>