<svg xmlns="http://www.w3.org/2000/svg" id="surface1" width="34.053" height="28.733" viewBox="0 0 34.053 28.733">
    <defs>
        <style>
            .cls-1{fill:#535252}
        </style>
    </defs>
    <path id="Caminho_1805" d="M92.225 249.5a.664.664 0 1 0-.195.471.671.671 0 0 0 .195-.471zm0 0" class="cls-1" transform="translate(-84.849 -232.315)"/>
    <path id="Caminho_1806" d="M185.9 248.832a.666.666 0 1 0 .47.195.671.671 0 0 0-.47-.195zm0 0" class="cls-1" transform="translate(-172.918 -232.315)"/>
    <path id="Caminho_1807" d="M110.021 306.379a.665.665 0 0 0-.814.471 1.627 1.627 0 0 1-3.145 0 .665.665 0 0 0-1.286.344 2.958 2.958 0 0 0 5.717 0 .666.666 0 0 0-.472-.815zm0 0" class="cls-1" transform="translate(-97.785 -286.014)"/>
    <path id="Caminho_1808" d="M246.782 6.055a.665.665 0 0 0 .665-.665V1.165a.665.665 0 0 0-1.331 0V5.39a.665.665 0 0 0 .666.665zm0 0" class="cls-1" transform="translate(-229.748 -.5)"/>
    <path id="Caminho_1809" d="M246.786 99.367a.666.666 0 1 0 .471.2.67.67 0 0 0-.471-.2zm0 0" class="cls-1" transform="translate(-229.751 -92.791)"/>
    <path id="Caminho_1810" d="M154.428 65.841a.665.665 0 1 0 .941-.941l-1.7-1.7a.665.665 0 1 0-.94.942zm0 0" class="cls-1" transform="translate(-142.389 -58.85)"/>
    <path id="Caminho_1811" d="M313.234 66.172a.664.664 0 0 0 .471-.195l1.806-1.808a.665.665 0 0 0-.941-.941l-1.806 1.808a.665.665 0 0 0 .471 1.136zm0 0" class="cls-1" transform="translate(-291.78 -58.874)"/>
    <path id="Caminho_1812" d="M33.717 143.58a9.853 9.853 0 0 0-16.695-4.194 9.849 9.849 0 1 0 .007 13.487 9.847 9.847 0 0 0 16.687-9.293zM9.849 154.651a8.518 8.518 0 1 1 6.324-14.223q-.265.374-.5.777a9.852 9.852 0 0 0 .5 10.63 8.477 8.477 0 0 1-6.324 2.816zm16.56-.295a8.518 8.518 0 0 1-9.581-12.486 8.624 8.624 0 0 1 .7-1.032l.031-.039a8.518 8.518 0 1 1 8.851 13.557zm0 0" class="cls-1" transform="translate(0 -127.249)"/>
    <path id="Caminho_1813" d="M294.779 249.737a1.443 1.443 0 0 0-2.788.747.665.665 0 1 0 1.285-.344.113.113 0 0 1 .079-.138.113.113 0 0 1 .138.08.665.665 0 1 0 1.285-.344zm0 0" class="cls-1" transform="translate(-272.525 -232.161)"/>
    <path id="Caminho_1814" d="M384.663 224.59a1.443 1.443 0 0 0-2.116 1.623.665.665 0 0 0 1.286-.345.112.112 0 0 1 .217-.058.665.665 0 0 0 1.286-.344 1.433 1.433 0 0 0-.673-.876zm0 0" class="cls-1" transform="translate(-357.057 -209.505)"/>
    <path id="Caminho_1815" d="M336.164 295.87a.665.665 0 0 0-.47.815 1.587 1.587 0 1 1-3.065.822.665.665 0 1 0-1.285.344 2.921 2.921 0 0 0 2.813 2.164 2.921 2.921 0 0 0 2.823-3.674.666.666 0 0 0-.816-.471zm0 0" class="cls-1" transform="translate(-309.284 -276.203)"/>
</svg>
