<svg xmlns="http://www.w3.org/2000/svg" width="27.97" height="21.279" viewBox="0 0 27.97 21.279">
    <defs>
        <style>
            .prefix__cls-1{fill:#707070}
        </style>
    </defs>
    <g id="prefix__wifi">
        <g id="prefix__Grupo_1774" data-name="Grupo 1774" transform="translate(11.555 16.446)">
            <g id="prefix__Grupo_1773" data-name="Grupo 1773">
                <path id="prefix__Caminho_2049" d="M211.94 358.88a2.416 2.416 0 1 0 2.425 2.416 2.423 2.423 0 0 0-2.425-2.416z" class="prefix__cls-1" data-name="Caminho 2049" transform="translate(-209.516 -358.88)"/>
            </g>
        </g>
        <g id="prefix__Grupo_1776" data-name="Grupo 1776" transform="translate(7.6 10.708)">
            <g id="prefix__Grupo_1775" data-name="Grupo 1775">
                <path id="prefix__Caminho_2050" d="M150.1 257.28a8.375 8.375 0 0 0-11.815-.016 1.632 1.632 0 0 0 2.309 2.306 5.1 5.1 0 0 1 7.192.009 1.631 1.631 0 0 0 2.314-2.3z" class="prefix__cls-1" data-name="Caminho 2050" transform="translate(-137.807 -254.833)"/>
            </g>
        </g>
        <g id="prefix__Grupo_1778" data-name="Grupo 1778">
            <g id="prefix__Grupo_1777" data-name="Grupo 1777">
                <path id="prefix__Caminho_2051" d="M27.492 66.246a19.15 19.15 0 0 0-27.014-.013 1.631 1.631 0 0 0 2.31 2.3 15.872 15.872 0 0 1 22.392.011 1.631 1.631 0 1 0 2.312-2.3z" class="prefix__cls-1" data-name="Caminho 2051" transform="translate(0 -60.665)"/>
            </g>
        </g>
        <g id="prefix__Grupo_1780" data-name="Grupo 1780" transform="translate(3.895 5.489)">
            <g id="prefix__Grupo_1779" data-name="Grupo 1779">
                <path id="prefix__Caminho_2052" d="M90.33 164.174a13.626 13.626 0 0 0-19.222-.013 1.631 1.631 0 0 0 2.31 2.3 10.348 10.348 0 0 1 14.6.01 1.632 1.632 0 1 0 2.313-2.3z" class="prefix__cls-1" data-name="Caminho 2052" transform="translate(-70.628 -160.2)"/>
            </g>
        </g>
    </g>
</svg>
